<?xml version="1.0" encoding="UTF-8" standalone="no"?>
<!DOCTYPE svg PUBLIC "-//W3C//DTD SVG 1.1//EN" "http://www.w3.org/Graphics/SVG/1.1/DTD/svg11.dtd">
<svg xmlns="http://www.w3.org/2000/svg" version="1.1" viewBox="0.00 0.00 180.00 180.00" width="128" height="128">
<g stroke-width="2.00" fill="none" stroke-linecap="butt">
<path stroke="#f997a3" vector-effect="non-scaling-stroke" d="
  M 140.55 90.20
  A 50.35 50.35 0.0 0 0 90.20 39.85
  A 50.35 50.35 0.0 0 0 39.85 90.20
  A 50.35 50.35 0.0 0 0 90.20 140.55
  A 50.35 50.35 0.0 0 0 140.55 90.20"
/>
<path stroke="#f997a3" vector-effect="non-scaling-stroke" d="
  M 127.25 90.21
  A 37.05 37.05 0.0 0 0 90.20 53.16
  A 37.05 37.05 0.0 0 0 53.15 90.21
  A 37.05 37.05 0.0 0 0 90.20 127.26
  A 37.05 37.05 0.0 0 0 127.25 90.21"
/>
<path stroke="#f997a3" vector-effect="non-scaling-stroke" d="
  M 88.17 77.65
  A 10.53 10.53 0.0 0 0 77.64 67.12
  A 10.53 10.53 0.0 0 0 67.11 77.65
  A 10.53 10.53 0.0 0 0 77.64 88.18
  A 10.53 10.53 0.0 0 0 88.17 77.65"
/>
<path stroke="#f997a3" vector-effect="non-scaling-stroke" d="
  M 113.28 77.66
  A 10.53 10.53 0.0 0 0 102.75 67.13
  A 10.53 10.53 0.0 0 0 92.22 77.66
  A 10.53 10.53 0.0 0 0 102.75 88.19
  A 10.53 10.53 0.0 0 0 113.28 77.66"
/>
<path stroke="#f997a3" vector-effect="non-scaling-stroke" d="
  M 88.17 102.76
  A 10.53 10.53 0.0 0 0 77.64 92.23
  A 10.53 10.53 0.0 0 0 67.11 102.76
  A 10.53 10.53 0.0 0 0 77.64 113.29
  A 10.53 10.53 0.0 0 0 88.17 102.76"
/>
<path stroke="#f997a3" vector-effect="non-scaling-stroke" d="
  M 113.28 102.76
  A 10.53 10.53 0.0 0 0 102.75 92.23
  A 10.53 10.53 0.0 0 0 92.22 102.76
  A 10.53 10.53 0.0 0 0 102.75 113.29
  A 10.53 10.53 0.0 0 0 113.28 102.76"
/>
</g>
<path fill="#f22f46" d="
  M 180.00 0.00
  L 180.00 180.00
  L 0.00 180.00
  L 0.00 0.00
  L 180.00 0.00
  Z
  M 140.55 90.20
  A 50.35 50.35 0.0 0 0 90.20 39.85
  A 50.35 50.35 0.0 0 0 39.85 90.20
  A 50.35 50.35 0.0 0 0 90.20 140.55
  A 50.35 50.35 0.0 0 0 140.55 90.20
  Z"
/>
<path fill="#ffffff" d="
  M 140.55 90.20
  A 50.35 50.35 0.0 0 1 90.20 140.55
  A 50.35 50.35 0.0 0 1 39.85 90.20
  A 50.35 50.35 0.0 0 1 90.20 39.85
  A 50.35 50.35 0.0 0 1 140.55 90.20
  Z
  M 127.25 90.21
  A 37.05 37.05 0.0 0 0 90.20 53.16
  A 37.05 37.05 0.0 0 0 53.15 90.21
  A 37.05 37.05 0.0 0 0 90.20 127.26
  A 37.05 37.05 0.0 0 0 127.25 90.21
  Z"
/>
<path fill="#f22f46" d="
  M 127.25 90.21
  A 37.05 37.05 0.0 0 1 90.20 127.26
  A 37.05 37.05 0.0 0 1 53.15 90.21
  A 37.05 37.05 0.0 0 1 90.20 53.16
  A 37.05 37.05 0.0 0 1 127.25 90.21
  Z
  M 88.17 77.65
  A 10.53 10.53 0.0 0 0 77.64 67.12
  A 10.53 10.53 0.0 0 0 67.11 77.65
  A 10.53 10.53 0.0 0 0 77.64 88.18
  A 10.53 10.53 0.0 0 0 88.17 77.65
  Z
  M 113.28 77.66
  A 10.53 10.53 0.0 0 0 102.75 67.13
  A 10.53 10.53 0.0 0 0 92.22 77.66
  A 10.53 10.53 0.0 0 0 102.75 88.19
  A 10.53 10.53 0.0 0 0 113.28 77.66
  Z
  M 88.17 102.76
  A 10.53 10.53 0.0 0 0 77.64 92.23
  A 10.53 10.53 0.0 0 0 67.11 102.76
  A 10.53 10.53 0.0 0 0 77.64 113.29
  A 10.53 10.53 0.0 0 0 88.17 102.76
  Z
  M 113.28 102.76
  A 10.53 10.53 0.0 0 0 102.75 92.23
  A 10.53 10.53 0.0 0 0 92.22 102.76
  A 10.53 10.53 0.0 0 0 102.75 113.29
  A 10.53 10.53 0.0 0 0 113.28 102.76
  Z"
/>
<circle fill="#ffffff" cx="77.64" cy="77.65" r="10.53"/>
<circle fill="#ffffff" cx="102.75" cy="77.66" r="10.53"/>
<circle fill="#ffffff" cx="77.64" cy="102.76" r="10.53"/>
<circle fill="#ffffff" cx="102.75" cy="102.76" r="10.53"/>
</svg>