<?xml version="1.0" encoding="UTF-8" standalone="no"?>
<!DOCTYPE svg PUBLIC "-//W3C//DTD SVG 1.1//EN" "http://www.w3.org/Graphics/SVG/1.1/DTD/svg11.dtd">
<svg xmlns="http://www.w3.org/2000/svg" version="1.1" viewBox="0.00 0.00 180.00 180.00" width="128" height="128">
<g stroke-width="2.00" fill="none" stroke-linecap="butt">
<path stroke="#927e18" vector-effect="non-scaling-stroke" d="
  M 119.53 65.13
  Q 124.70 59.72 126.18 55.05
  C 129.61 44.25 120.75 40.63 112.02 41.79
  Q 105.65 42.65 99.25 45.59
  A 0.76 0.75 53.4 0 1 98.41 45.46
  L 92.40 39.95
  A 2.77 2.74 76.3 0 0 91.57 39.44
  C 85.16 36.92 77.73 40.20 72.46 43.69
  Q 55.06 55.16 44.51 73.49
  C 41.47 78.78 38.59 86.64 41.76 92.42
  A 3.56 3.56 0.0 0 0 42.55 93.38
  L 46.45 96.68
  A 0.74 0.73 -62.4 0 1 46.68 97.43
  C 43.62 108.47 50.42 117.57 61.25 118.63
  A 0.86 0.85 78.2 0 1 61.93 119.08
  Q 71.72 137.91 93.30 141.03
  C 112.89 143.87 135.57 134.71 139.63 113.14
  C 140.34 109.35 140.46 105.43 136.56 103.72
  A 1.36 1.35 -86.7 0 1 135.81 102.87
  L 134.84 99.69
  A 1.61 1.61 0.0 0 1 134.92 98.54
  C 138.95 89.75 131.30 86.84 124.61 84.89
  A 0.80 0.79 8.4 0 1 124.04 84.13
  C 124.02 77.40 123.93 71.54 119.49 66.10
  A 0.74 0.73 47.8 0 1 119.53 65.13"
/>
<path stroke="#927e18" vector-effect="non-scaling-stroke" d="
  M 94.79 47.40
  L 90.93 43.54
  A 4.52 4.50 68.5 0 0 87.92 42.22
  C 82.62 42.01 76.69 45.24 72.43 48.17
  Q 56.77 58.95 47.52 75.77
  Q 45.31 79.78 44.30 84.53
  Q 43.00 90.60 48.26 93.52
  A 0.64 0.64 0.0 0 0 49.07 93.36
  Q 52.14 89.62 56.25 88.79
  A 1.84 1.81 4.7 0 0 57.58 87.68
  Q 60.93 79.23 66.25 71.64
  C 73.15 61.80 84.17 53.73 94.73 47.81
  A 0.26 0.25 53.7 0 0 94.79 47.40"
/>
<path stroke="#927e18" vector-effect="non-scaling-stroke" d="
  M 109.63 61.26
  A 0.34 0.34 0.0 0 0 109.45 60.83
  Q 104.76 58.76 100.60 58.68
  A 0.36 0.36 0.0 0 1 100.36 58.07
  L 101.79 56.64
  A 0.23 0.23 0.0 0 0 101.61 56.25
  Q 95.98 56.79 90.74 59.91
  A 0.45 0.45 0.0 0 1 90.06 59.54
  Q 90.04 58.64 90.88 57.77
  A 0.41 0.41 0.0 0 0 90.39 57.13
  Q 83.37 61.07 77.89 67.16
  A 0.19 0.19 0.0 0 0 78.14 67.44
  C 86.74 61.93 99.16 58.57 109.18 61.51
  A 0.37 0.36 17.4 0 0 109.63 61.28
  L 109.63 61.26"
/>
<path stroke="#927e18" vector-effect="non-scaling-stroke" d="
  M 131.08 110.53
  L 128.50 113.02
  A 6.13 5.74 4.9 0 1 127.51 113.80
  Q 117.34 120.21 105.22 119.45
  C 99.54 119.09 92.24 115.86 94.76 109.04
  C 95.65 106.63 97.75 105.45 100.25 105.76
  Q 110.21 107.01 119.48 104.20
  C 124.04 102.82 129.54 100.31 131.87 96.28
  A 3.72 3.58 -49.1 0 0 131.66 92.26
  C 129.85 89.87 125.73 89.01 122.29 88.02
  A 2.48 2.47 -83.7 0 1 120.50 85.78
  C 120.19 80.11 120.58 74.75 118.52 71.91
  C 116.22 68.75 113.50 69.93 110.66 72.08
  C 105.98 75.62 100.85 74.40 95.83 74.01
  A 4.37 4.31 39.9 0 0 94.49 74.12
  Q 88.20 75.66 86.32 81.36
  C 84.25 87.67 87.70 92.93 92.13 97.24
  A 1.22 1.22 0.0 0 1 92.17 98.94
  C 84.25 107.53 84.79 121.75 95.42 127.92
  C 109.74 136.23 131.59 128.97 136.03 112.32
  Q 136.81 109.40 135.82 107.30
  A 0.85 0.84 77.1 0 0 135.06 106.82
  L 134.17 106.82
  A 0.59 0.57 81.0 0 1 133.62 106.41
  L 132.26 101.93
  A 0.55 0.55 0.0 0 0 131.44 101.63
  Q 117.70 110.59 100.18 108.31
  A 3.18 3.16 -61.2 0 0 97.70 109.04
  L 97.63 109.10
  A 0.81 0.81 0.0 0 0 97.93 110.49
  Q 105.33 112.69 113.43 111.78
  A 0.29 0.28 29.9 0 1 113.58 112.32
  C 108.82 114.34 102.56 113.79 97.62 112.40
  A 0.45 0.45 0.0 0 0 97.07 112.94
  C 97.89 116.28 104.66 117.15 107.51 117.19
  C 116.33 117.32 123.23 114.34 130.94 110.33
  A 0.12 0.12 0.0 0 1 131.08 110.53"
/>
<path stroke="#927e18" vector-effect="non-scaling-stroke" d="
  M 53.41 111.22
  C 60.33 117.44 69.76 115.63 69.86 105.08
  C 69.91 100.61 68.73 96.29 65.01 93.68
  C 61.13 90.97 55.59 92.03 52.59 95.17
  C 48.38 99.56 48.80 107.07 53.41 111.22"
/>
<path stroke="#927e18" vector-effect="non-scaling-stroke" d="
  M 116.2124 80.1413
  A 1.84 1.84 0.0 0 0 114.0501 78.6937
  L 113.8146 78.7403
  A 1.84 1.84 0.0 0 0 112.3671 80.9027
  L 113.4276 86.2587
  A 1.84 1.84 0.0 0 0 115.5899 87.7063
  L 115.8254 87.6597
  A 1.84 1.84 0.0 0 0 117.2729 85.4973
  L 116.2124 80.1413"
/>
<path stroke="#927e18" vector-effect="non-scaling-stroke" d="
  M 98.82 88.23
  Q 100.88 88.32 103.33 89.80
  A 0.83 0.81 29.3 0 0 104.49 89.49
  Q 104.59 89.30 104.43 89.02
  Q 102.46 85.56 98.94 85.41
  Q 95.42 85.26 93.15 88.53
  Q 92.97 88.80 93.06 89.00
  A 0.83 0.81 -24.4 0 0 94.19 89.40
  Q 96.75 88.14 98.82 88.23"
/>
<path stroke="#927e18" vector-effect="non-scaling-stroke" d="
  M 65.91 107.53
  L 65.10 107.78
  A 1.46 1.45 -83.9 0 1 63.41 105.68
  C 69.35 94.98 54.50 91.52 54.11 102.34
  A 0.63 0.63 0.0 0 0 55.32 102.61
  C 56.30 100.39 57.28 97.99 60.35 99.20
  A 2.80 2.70 18.2 0 1 62.04 102.40
  Q 61.63 104.05 61.41 105.17
  C 60.83 108.07 63.86 111.14 66.49 108.49
  A 0.58 0.58 0.0 0 0 65.91 107.53"
/>
</g>
<path fill="#ffe01b" d="
  M 180.00 0.00
  L 180.00 180.00
  L 0.00 180.00
  L 0.00 0.00
  L 180.00 0.00
  Z
  M 119.53 65.13
  Q 124.70 59.72 126.18 55.05
  C 129.61 44.25 120.75 40.63 112.02 41.79
  Q 105.65 42.65 99.25 45.59
  A 0.76 0.75 53.4 0 1 98.41 45.46
  L 92.40 39.95
  A 2.77 2.74 76.3 0 0 91.57 39.44
  C 85.16 36.92 77.73 40.20 72.46 43.69
  Q 55.06 55.16 44.51 73.49
  C 41.47 78.78 38.59 86.64 41.76 92.42
  A 3.56 3.56 0.0 0 0 42.55 93.38
  L 46.45 96.68
  A 0.74 0.73 -62.4 0 1 46.68 97.43
  C 43.62 108.47 50.42 117.57 61.25 118.63
  A 0.86 0.85 78.2 0 1 61.93 119.08
  Q 71.72 137.91 93.30 141.03
  C 112.89 143.87 135.57 134.71 139.63 113.14
  C 140.34 109.35 140.46 105.43 136.56 103.72
  A 1.36 1.35 -86.7 0 1 135.81 102.87
  L 134.84 99.69
  A 1.61 1.61 0.0 0 1 134.92 98.54
  C 138.95 89.75 131.30 86.84 124.61 84.89
  A 0.80 0.79 8.4 0 1 124.04 84.13
  C 124.02 77.40 123.93 71.54 119.49 66.10
  A 0.74 0.73 47.8 0 1 119.53 65.13
  Z"
/>
<path fill="#241c15" d="
  M 119.49 66.10
  C 123.93 71.54 124.02 77.40 124.04 84.13
  A 0.80 0.79 8.4 0 0 124.61 84.89
  C 131.30 86.84 138.95 89.75 134.92 98.54
  A 1.61 1.61 0.0 0 0 134.84 99.69
  L 135.81 102.87
  A 1.36 1.35 -86.7 0 0 136.56 103.72
  C 140.46 105.43 140.34 109.35 139.63 113.14
  C 135.57 134.71 112.89 143.87 93.30 141.03
  Q 71.72 137.91 61.93 119.08
  A 0.86 0.85 78.2 0 0 61.25 118.63
  C 50.42 117.57 43.62 108.47 46.68 97.43
  A 0.74 0.73 -62.4 0 0 46.45 96.68
  L 42.55 93.38
  A 3.56 3.56 0.0 0 1 41.76 92.42
  C 38.59 86.64 41.47 78.78 44.51 73.49
  Q 55.06 55.16 72.46 43.69
  C 77.73 40.20 85.16 36.92 91.57 39.44
  A 2.77 2.74 76.3 0 1 92.40 39.95
  L 98.41 45.46
  A 0.76 0.75 53.4 0 0 99.25 45.59
  Q 105.65 42.65 112.02 41.79
  C 120.75 40.63 129.61 44.25 126.18 55.05
  Q 124.70 59.72 119.53 65.13
  A 0.74 0.73 47.8 0 0 119.49 66.10
  Z
  M 94.79 47.40
  L 90.93 43.54
  A 4.52 4.50 68.5 0 0 87.92 42.22
  C 82.62 42.01 76.69 45.24 72.43 48.17
  Q 56.77 58.95 47.52 75.77
  Q 45.31 79.78 44.30 84.53
  Q 43.00 90.60 48.26 93.52
  A 0.64 0.64 0.0 0 0 49.07 93.36
  Q 52.14 89.62 56.25 88.79
  A 1.84 1.81 4.7 0 0 57.58 87.68
  Q 60.93 79.23 66.25 71.64
  C 73.15 61.80 84.17 53.73 94.73 47.81
  A 0.26 0.25 53.7 0 0 94.79 47.40
  Z
  M 109.63 61.26
  A 0.34 0.34 0.0 0 0 109.45 60.83
  Q 104.76 58.76 100.60 58.68
  A 0.36 0.36 0.0 0 1 100.36 58.07
  L 101.79 56.64
  A 0.23 0.23 0.0 0 0 101.61 56.25
  Q 95.98 56.79 90.74 59.91
  A 0.45 0.45 0.0 0 1 90.06 59.54
  Q 90.04 58.64 90.88 57.77
  A 0.41 0.41 0.0 0 0 90.39 57.13
  Q 83.37 61.07 77.89 67.16
  A 0.19 0.19 0.0 0 0 78.14 67.44
  C 86.74 61.93 99.16 58.57 109.18 61.51
  A 0.37 0.36 17.4 0 0 109.63 61.28
  L 109.63 61.26
  Z
  M 131.08 110.53
  L 128.50 113.02
  A 6.13 5.74 4.9 0 1 127.51 113.80
  Q 117.34 120.21 105.22 119.45
  C 99.54 119.09 92.24 115.86 94.76 109.04
  C 95.65 106.63 97.75 105.45 100.25 105.76
  Q 110.21 107.01 119.48 104.20
  C 124.04 102.82 129.54 100.31 131.87 96.28
  A 3.72 3.58 -49.1 0 0 131.66 92.26
  C 129.85 89.87 125.73 89.01 122.29 88.02
  A 2.48 2.47 -83.7 0 1 120.50 85.78
  C 120.19 80.11 120.58 74.75 118.52 71.91
  C 116.22 68.75 113.50 69.93 110.66 72.08
  C 105.98 75.62 100.85 74.40 95.83 74.01
  A 4.37 4.31 39.9 0 0 94.49 74.12
  Q 88.20 75.66 86.32 81.36
  C 84.25 87.67 87.70 92.93 92.13 97.24
  A 1.22 1.22 0.0 0 1 92.17 98.94
  C 84.25 107.53 84.79 121.75 95.42 127.92
  C 109.74 136.23 131.59 128.97 136.03 112.32
  Q 136.81 109.40 135.82 107.30
  A 0.85 0.84 77.1 0 0 135.06 106.82
  L 134.17 106.82
  A 0.59 0.57 81.0 0 1 133.62 106.41
  L 132.26 101.93
  A 0.55 0.55 0.0 0 0 131.44 101.63
  Q 117.70 110.59 100.18 108.31
  A 3.18 3.16 -61.2 0 0 97.70 109.04
  L 97.63 109.10
  A 0.81 0.81 0.0 0 0 97.93 110.49
  Q 105.33 112.69 113.43 111.78
  A 0.29 0.28 29.9 0 1 113.58 112.32
  C 108.82 114.34 102.56 113.79 97.62 112.40
  A 0.45 0.45 0.0 0 0 97.07 112.94
  C 97.89 116.28 104.66 117.15 107.51 117.19
  C 116.33 117.32 123.23 114.34 130.94 110.33
  A 0.12 0.12 0.0 0 1 131.08 110.53
  Z
  M 53.41 111.22
  C 60.33 117.44 69.76 115.63 69.86 105.08
  C 69.91 100.61 68.73 96.29 65.01 93.68
  C 61.13 90.97 55.59 92.03 52.59 95.17
  C 48.38 99.56 48.80 107.07 53.41 111.22
  Z"
/>
<path fill="#ffe01b" d="
  M 94.79 47.40
  A 0.26 0.25 53.7 0 1 94.73 47.81
  C 84.17 53.73 73.15 61.80 66.25 71.64
  Q 60.93 79.23 57.58 87.68
  A 1.84 1.81 4.7 0 1 56.25 88.79
  Q 52.14 89.62 49.07 93.36
  A 0.64 0.64 0.0 0 1 48.26 93.52
  Q 43.00 90.60 44.30 84.53
  Q 45.31 79.78 47.52 75.77
  Q 56.77 58.95 72.43 48.17
  C 76.69 45.24 82.62 42.01 87.92 42.22
  A 4.52 4.50 68.5 0 1 90.93 43.54
  L 94.79 47.40
  Z"
/>
<path fill="#ffe01b" d="
  M 109.18 61.51
  C 99.16 58.57 86.74 61.93 78.14 67.44
  A 0.19 0.19 0.0 0 1 77.89 67.16
  Q 83.37 61.07 90.39 57.13
  A 0.41 0.41 0.0 0 1 90.88 57.77
  Q 90.04 58.64 90.06 59.54
  A 0.45 0.45 0.0 0 0 90.74 59.91
  Q 95.98 56.79 101.61 56.25
  A 0.23 0.23 0.0 0 1 101.79 56.64
  L 100.36 58.07
  A 0.36 0.36 0.0 0 0 100.60 58.68
  Q 104.76 58.76 109.45 60.83
  A 0.34 0.34 0.0 0 1 109.63 61.26
  L 109.63 61.28
  A 0.37 0.36 17.4 0 1 109.18 61.51
  Z"
/>
<path fill="#ffe01b" d="
  M 131.08 110.53
  A 0.12 0.12 0.0 0 0 130.94 110.33
  C 123.23 114.34 116.33 117.32 107.51 117.19
  C 104.66 117.15 97.89 116.28 97.07 112.94
  A 0.45 0.45 0.0 0 1 97.62 112.40
  C 102.56 113.79 108.82 114.34 113.58 112.32
  A 0.29 0.28 29.9 0 0 113.43 111.78
  Q 105.33 112.69 97.93 110.49
  A 0.81 0.81 0.0 0 1 97.63 109.10
  L 97.70 109.04
  A 3.18 3.16 -61.2 0 1 100.18 108.31
  Q 117.70 110.59 131.44 101.63
  A 0.55 0.55 0.0 0 1 132.26 101.93
  L 133.62 106.41
  A 0.59 0.57 81.0 0 0 134.17 106.82
  L 135.06 106.82
  A 0.85 0.84 77.1 0 1 135.82 107.30
  Q 136.81 109.40 136.03 112.32
  C 131.59 128.97 109.74 136.23 95.42 127.92
  C 84.79 121.75 84.25 107.53 92.17 98.94
  A 1.22 1.22 0.0 0 0 92.13 97.24
  C 87.70 92.93 84.25 87.67 86.32 81.36
  Q 88.20 75.66 94.49 74.12
  A 4.37 4.31 39.9 0 1 95.83 74.01
  C 100.85 74.40 105.98 75.62 110.66 72.08
  C 113.50 69.93 116.22 68.75 118.52 71.91
  C 120.58 74.75 120.19 80.11 120.50 85.78
  A 2.48 2.47 -83.7 0 0 122.29 88.02
  C 125.73 89.01 129.85 89.87 131.66 92.26
  A 3.72 3.58 -49.1 0 1 131.87 96.28
  C 129.54 100.31 124.04 102.82 119.48 104.20
  Q 110.21 107.01 100.25 105.76
  C 97.75 105.45 95.65 106.63 94.76 109.04
  C 92.24 115.86 99.54 119.09 105.22 119.45
  Q 117.34 120.21 127.51 113.80
  A 6.13 5.74 4.9 0 0 128.50 113.02
  L 131.08 110.53
  Z
  M 116.2124 80.1413
  A 1.84 1.84 0.0 0 0 114.0501 78.6937
  L 113.8146 78.7403
  A 1.84 1.84 0.0 0 0 112.3671 80.9027
  L 113.4276 86.2587
  A 1.84 1.84 0.0 0 0 115.5899 87.7063
  L 115.8254 87.6597
  A 1.84 1.84 0.0 0 0 117.2729 85.4973
  L 116.2124 80.1413
  Z
  M 98.82 88.23
  Q 100.88 88.32 103.33 89.80
  A 0.83 0.81 29.3 0 0 104.49 89.49
  Q 104.59 89.30 104.43 89.02
  Q 102.46 85.56 98.94 85.41
  Q 95.42 85.26 93.15 88.53
  Q 92.97 88.80 93.06 89.00
  A 0.83 0.81 -24.4 0 0 94.19 89.40
  Q 96.75 88.14 98.82 88.23
  Z"
/>
<rect fill="#241c15" x="-1.96" y="-4.57" transform="translate(114.82,83.20) rotate(-11.2)" width="3.92" height="9.14" rx="1.84"/>
<path fill="#241c15" d="
  M 98.94 85.41
  Q 102.46 85.56 104.43 89.02
  Q 104.59 89.30 104.49 89.49
  A 0.83 0.81 29.3 0 1 103.33 89.80
  Q 100.88 88.32 98.82 88.23
  Q 96.75 88.14 94.19 89.40
  A 0.83 0.81 -24.4 0 1 93.06 89.00
  Q 92.97 88.80 93.15 88.53
  Q 95.42 85.26 98.94 85.41
  Z"
/>
<path fill="#ffe01b" d="
  M 69.86 105.08
  C 69.76 115.63 60.33 117.44 53.41 111.22
  C 48.80 107.07 48.38 99.56 52.59 95.17
  C 55.59 92.03 61.13 90.97 65.01 93.68
  C 68.73 96.29 69.91 100.61 69.86 105.08
  Z
  M 65.91 107.53
  L 65.10 107.78
  A 1.46 1.45 -83.9 0 1 63.41 105.68
  C 69.35 94.98 54.50 91.52 54.11 102.34
  A 0.63 0.63 0.0 0 0 55.32 102.61
  C 56.30 100.39 57.28 97.99 60.35 99.20
  A 2.80 2.70 18.2 0 1 62.04 102.40
  Q 61.63 104.05 61.41 105.17
  C 60.83 108.07 63.86 111.14 66.49 108.49
  A 0.58 0.58 0.0 0 0 65.91 107.53
  Z"
/>
<path fill="#241c15" d="
  M 65.91 107.53
  A 0.58 0.58 0.0 0 1 66.49 108.49
  C 63.86 111.14 60.83 108.07 61.41 105.17
  Q 61.63 104.05 62.04 102.40
  A 2.80 2.70 18.2 0 0 60.35 99.20
  C 57.28 97.99 56.30 100.39 55.32 102.61
  A 0.63 0.63 0.0 0 1 54.11 102.34
  C 54.50 91.52 69.35 94.98 63.41 105.68
  A 1.46 1.45 -83.9 0 0 65.10 107.78
  L 65.91 107.53
  Z"
/>
</svg>