<?xml version="1.0" encoding="UTF-8" standalone="no"?>
<!DOCTYPE svg PUBLIC "-//W3C//DTD SVG 1.1//EN" "http://www.w3.org/Graphics/SVG/1.1/DTD/svg11.dtd">
<svg xmlns="http://www.w3.org/2000/svg" version="1.1" viewBox="0.00 0.00 256.00 256.00" width="128" height="128">
<g stroke-width="2.00" fill="none" stroke-linecap="butt">
<path stroke="#87afff" vector-effect="non-scaling-stroke" d="
  M 89.36 25.70
  Q 78.46 28.32 70.40 32.40
  C 47.54 43.97 29.86 66.58 25.04 92.01
  Q 21.85 108.82 21.81 128.09"
/>
<path stroke="#85a9f2" vector-effect="non-scaling-stroke" d="
  M 21.81 128.09
  Q 21.82 142.73 24.05 158.50
  Q 25.22 166.80 27.37 173.72"
/>
<path stroke="#84a5e5" vector-effect="non-scaling-stroke" d="
  M 27.37 173.72
  Q 30.32 182.27 31.34 184.39
  Q 43.33 209.17 67.27 222.70
  Q 78.68 229.14 89.55 231.43
  Q 110.75 235.90 135.22 235.05"
/>
<path stroke="#85a9f2" vector-effect="non-scaling-stroke" d="
  M 135.22 235.05
  Q 153.74 234.55 168.23 231.23
  Q 192.40 225.71 210.31 206.79"
/>
<path stroke="#87afff" vector-effect="non-scaling-stroke" d="
  M 210.31 206.79
  Q 222.55 193.70 228.61 177.08
  C 231.60 168.87 233.16 159.69 234.04 150.76
  Q 236.08 129.84 234.20 109.01"
/>
<path stroke="#91b7fd" vector-effect="non-scaling-stroke" d="
  M 234.20 109.01
  C 232.79 96.65 231.44 87.31 227.05 76.46"
/>
<path stroke="#9cc0fa" vector-effect="non-scaling-stroke" d="
  M 227.05 76.46
  Q 224.53 69.51 219.79 62.46
  Q 205.20 40.75 182.26 30.62
  Q 172.34 26.24 158.77 24.13
  Q 146.73 22.25 134.43 22.04"
/>
<path stroke="#91b7fd" vector-effect="non-scaling-stroke" d="
  M 134.43 22.04
  Q 111.78 21.12 89.36 25.70"
/>
<path stroke="#2e77f7" vector-effect="non-scaling-stroke" d="
  M 134.43 22.04
  Q 149.56 36.02 167.23 46.40
  C 185.37 57.06 206.76 68.76 227.05 76.46"
/>
<path stroke="#1966fc" vector-effect="non-scaling-stroke" d="
  M 234.20 109.01
  Q 214.49 100.41 189.05 85.59
  C 149.27 62.41 119.38 45.39 89.36 25.70"
/>
<path stroke="#0c59f2" vector-effect="non-scaling-stroke" d="
  M 210.31 206.79
  Q 192.28 193.26 173.51 183.70
  Q 142.42 167.88 118.43 155.01
  C 111.98 151.56 105.33 148.49 98.77 145.31"
/>
<path stroke="#87afff" vector-effect="non-scaling-stroke" d="
  M 98.77 145.31
  Q 107.75 146.23 113.79 140.16
  Q 116.56 137.37 117.41 134.32
  C 118.82 129.21 118.59 123.38 115.53 119.06
  C 107.64 107.92 92.96 109.78 86.55 121.01"
/>
<path stroke="#0c59f2" vector-effect="non-scaling-stroke" d="
  M 86.55 121.01
  Q 84.48 119.68 82.53 119.35"
/>
<path stroke="#87afff" vector-effect="non-scaling-stroke" d="
  M 82.53 119.35
  Q 83.40 116.63 82.87 115.12
  Q 81.82 112.12 77.73 112.05
  Q 68.00 111.88 55.75 111.89
  A 1.14 1.13 88.1 0 0 54.62 113.10
  C 54.88 117.52 58.90 118.69 62.77 118.67
  Q 66.86 118.65 72.06 118.44
  A 0.90 0.90 0.0 0 1 72.89 119.77
  Q 72.64 120.21 72.06 120.82
  Q 68.74 124.31 56.07 136.80
  Q 53.67 139.16 54.69 141.93"
/>
<path stroke="#0c59f2" vector-effect="non-scaling-stroke" d="
  M 54.69 141.93
  C 44.47 134.98 34.13 129.34 21.81 128.09"
/>
<path stroke="#85a9f2" vector-effect="non-scaling-stroke" d="
  M 82.53 119.35
  L 64.65 137.42
  A 0.47 0.47 0.0 0 0 64.98 138.22
  L 79.80 138.22
  A 4.09 4.08 75.0 0 1 83.34 140.27
  L 84.88 142.93
  A 1.50 1.49 -14.8 0 1 83.57 145.17
  Q 71.98 145.08 59.37 144.98
  Q 57.20 144.96 54.69 141.93"
/>
<path stroke="#0a4fd8" vector-effect="non-scaling-stroke" d="
  M 135.22 235.05
  Q 93.64 208.76 54.70 187.06
  Q 42.51 180.26 27.37 173.72"
/>
<path stroke="#85a9f2" vector-effect="non-scaling-stroke" d="
  M 98.77 145.31
  C 94.70 144.35 92.20 142.62 89.49 139.69
  C 84.61 134.42 83.48 127.64 86.55 121.01"
/>
<path stroke="#87afff" vector-effect="non-scaling-stroke" d="
  M 154.89 128.39
  A 16.88 16.88 0.0 0 0 138.01 111.51
  A 16.88 16.88 0.0 0 0 121.13 128.39
  A 16.88 16.88 0.0 0 0 138.01 145.27
  A 16.88 16.88 0.0 0 0 154.89 128.39"
/>
<path stroke="#87afff" vector-effect="non-scaling-stroke" d="
  M 199.53 144.34
  A 2.03 2.03 0.0 0 0 202.73 142.76
  Q 202.96 137.15 202.79 126.24
  Q 202.60 114.74 192.43 111.92
  C 187.87 110.66 184.42 112.71 180.75 115.12
  A 1.03 1.03 0.0 0 1 179.61 115.12
  C 178.22 114.21 176.45 112.45 174.80 112.06
  C 165.31 109.82 157.57 116.28 157.74 126.00
  Q 157.96 137.88 157.53 142.60
  A 1.90 1.90 0.0 0 0 160.37 144.41
  L 161.69 143.65
  A 5.60 5.60 0.0 0 0 164.49 138.94
  Q 164.61 134.14 164.50 127.35
  Q 164.45 123.78 165.19 122.26
  C 166.55 119.45 169.94 117.09 173.06 118.67
  C 175.70 120.00 177.23 121.88 177.00 125.35
  Q 176.71 129.83 176.94 139.59
  A 4.70 4.70 0.0 0 0 179.94 143.85
  L 181.56 144.47
  A 1.75 1.75 0.0 0 0 183.93 142.63
  Q 183.59 139.88 183.93 124.51
  C 183.99 122.01 185.70 117.97 188.72 118.17
  Q 193.32 118.49 195.54 122.02
  A 2.64 2.60 28.8 0 1 195.95 123.39
  L 196.22 139.01
  A 6.01 6.01 0.0 0 0 198.79 143.82
  L 199.53 144.34"
/>
<path stroke="#87afff" vector-effect="non-scaling-stroke" d="
  M 111.94 128.54
  A 10.18 10.18 0.0 0 0 101.76 118.36
  A 10.18 10.18 0.0 0 0 91.58 128.54
  A 10.18 10.18 0.0 0 0 101.76 138.72
  A 10.18 10.18 0.0 0 0 111.94 128.54"
/>
<path stroke="#87afff" vector-effect="non-scaling-stroke" d="
  M 130.9917 120.9534
  A 10.26 10.10 -132.4 0 0 130.4516 135.3405
  A 10.26 10.10 -132.4 0 0 144.8283 136.1066
  A 10.26 10.10 -132.4 0 0 145.3684 121.7195
  A 10.26 10.10 -132.4 0 0 130.9917 120.9534"
/>
</g>
<path fill="#ffffff" d="
  M 256.00 0.00
  L 256.00 256.00
  L 0.00 256.00
  L 0.00 0.00
  L 256.00 0.00
  Z
  M 89.36 25.70
  Q 78.46 28.32 70.40 32.40
  C 47.54 43.97 29.86 66.58 25.04 92.01
  Q 21.85 108.82 21.81 128.09
  Q 21.82 142.73 24.05 158.50
  Q 25.22 166.80 27.37 173.72
  Q 30.32 182.27 31.34 184.39
  Q 43.33 209.17 67.27 222.70
  Q 78.68 229.14 89.55 231.43
  Q 110.75 235.90 135.22 235.05
  Q 153.74 234.55 168.23 231.23
  Q 192.40 225.71 210.31 206.79
  Q 222.55 193.70 228.61 177.08
  C 231.60 168.87 233.16 159.69 234.04 150.76
  Q 236.08 129.84 234.20 109.01
  C 232.79 96.65 231.44 87.31 227.05 76.46
  Q 224.53 69.51 219.79 62.46
  Q 205.20 40.75 182.26 30.62
  Q 172.34 26.24 158.77 24.13
  Q 146.73 22.25 134.43 22.04
  Q 111.78 21.12 89.36 25.70
  Z"
/>
<path fill="#236efa" d="
  M 134.43 22.04
  Q 149.56 36.02 167.23 46.40
  C 185.37 57.06 206.76 68.76 227.05 76.46
  C 231.44 87.31 232.79 96.65 234.20 109.01
  Q 214.49 100.41 189.05 85.59
  C 149.27 62.41 119.38 45.39 89.36 25.70
  Q 111.78 21.12 134.43 22.04
  Z"
/>
<path fill="#3980f4" d="
  M 227.05 76.46
  C 206.76 68.76 185.37 57.06 167.23 46.40
  Q 149.56 36.02 134.43 22.04
  Q 146.73 22.25 158.77 24.13
  Q 172.34 26.24 182.26 30.62
  Q 205.20 40.75 219.79 62.46
  Q 224.53 69.51 227.05 76.46
  Z"
/>
<path fill="#0e5efe" d="
  M 234.20 109.01
  Q 236.08 129.84 234.04 150.76
  C 233.16 159.69 231.60 168.87 228.61 177.08
  Q 222.55 193.70 210.31 206.79
  Q 192.28 193.26 173.51 183.70
  Q 142.42 167.88 118.43 155.01
  C 111.98 151.56 105.33 148.49 98.77 145.31
  Q 107.75 146.23 113.79 140.16
  Q 116.56 137.37 117.41 134.32
  C 118.82 129.21 118.59 123.38 115.53 119.06
  C 107.64 107.92 92.96 109.78 86.55 121.01
  Q 84.48 119.68 82.53 119.35
  Q 83.40 116.63 82.87 115.12
  Q 81.82 112.12 77.73 112.05
  Q 68.00 111.88 55.75 111.89
  A 1.14 1.13 88.1 0 0 54.62 113.10
  C 54.88 117.52 58.90 118.69 62.77 118.67
  Q 66.86 118.65 72.06 118.44
  A 0.90 0.90 0.0 0 1 72.89 119.77
  Q 72.64 120.21 72.06 120.82
  Q 68.74 124.31 56.07 136.80
  Q 53.67 139.16 54.69 141.93
  C 44.47 134.98 34.13 129.34 21.81 128.09
  Q 21.85 108.82 25.04 92.01
  C 29.86 66.58 47.54 43.97 70.40 32.40
  Q 78.46 28.32 89.36 25.70
  C 119.38 45.39 149.27 62.41 189.05 85.59
  Q 214.49 100.41 234.20 109.01
  Z
  M 154.89 128.39
  A 16.88 16.88 0.0 0 0 138.01 111.51
  A 16.88 16.88 0.0 0 0 121.13 128.39
  A 16.88 16.88 0.0 0 0 138.01 145.27
  A 16.88 16.88 0.0 0 0 154.89 128.39
  Z
  M 199.53 144.34
  A 2.03 2.03 0.0 0 0 202.73 142.76
  Q 202.96 137.15 202.79 126.24
  Q 202.60 114.74 192.43 111.92
  C 187.87 110.66 184.42 112.71 180.75 115.12
  A 1.03 1.03 0.0 0 1 179.61 115.12
  C 178.22 114.21 176.45 112.45 174.80 112.06
  C 165.31 109.82 157.57 116.28 157.74 126.00
  Q 157.96 137.88 157.53 142.60
  A 1.90 1.90 0.0 0 0 160.37 144.41
  L 161.69 143.65
  A 5.60 5.60 0.0 0 0 164.49 138.94
  Q 164.61 134.14 164.50 127.35
  Q 164.45 123.78 165.19 122.26
  C 166.55 119.45 169.94 117.09 173.06 118.67
  C 175.70 120.00 177.23 121.88 177.00 125.35
  Q 176.71 129.83 176.94 139.59
  A 4.70 4.70 0.0 0 0 179.94 143.85
  L 181.56 144.47
  A 1.75 1.75 0.0 0 0 183.93 142.63
  Q 183.59 139.88 183.93 124.51
  C 183.99 122.01 185.70 117.97 188.72 118.17
  Q 193.32 118.49 195.54 122.02
  A 2.64 2.60 28.8 0 1 195.95 123.39
  L 196.22 139.01
  A 6.01 6.01 0.0 0 0 198.79 143.82
  L 199.53 144.34
  Z"
/>
<path fill="#ffffff" d="
  M 98.77 145.31
  C 94.70 144.35 92.20 142.62 89.49 139.69
  C 84.61 134.42 83.48 127.64 86.55 121.01
  C 92.96 109.78 107.64 107.92 115.53 119.06
  C 118.59 123.38 118.82 129.21 117.41 134.32
  Q 116.56 137.37 113.79 140.16
  Q 107.75 146.23 98.77 145.31
  Z
  M 111.94 128.54
  A 10.18 10.18 0.0 0 0 101.76 118.36
  A 10.18 10.18 0.0 0 0 91.58 128.54
  A 10.18 10.18 0.0 0 0 101.76 138.72
  A 10.18 10.18 0.0 0 0 111.94 128.54
  Z"
/>
<path fill="#ffffff" d="
  M 154.89 128.39
  A 16.88 16.88 0.0 0 1 138.01 145.27
  A 16.88 16.88 0.0 0 1 121.13 128.39
  A 16.88 16.88 0.0 0 1 138.01 111.51
  A 16.88 16.88 0.0 0 1 154.89 128.39
  Z
  M 130.9917 120.9534
  A 10.26 10.10 -132.4 0 0 130.4516 135.3405
  A 10.26 10.10 -132.4 0 0 144.8283 136.1066
  A 10.26 10.10 -132.4 0 0 145.3684 121.7195
  A 10.26 10.10 -132.4 0 0 130.9917 120.9534
  Z"
/>
<path fill="#ffffff" d="
  M 199.53 144.34
  L 198.79 143.82
  A 6.01 6.01 0.0 0 1 196.22 139.01
  L 195.95 123.39
  A 2.64 2.60 28.8 0 0 195.54 122.02
  Q 193.32 118.49 188.72 118.17
  C 185.70 117.97 183.99 122.01 183.93 124.51
  Q 183.59 139.88 183.93 142.63
  A 1.75 1.75 0.0 0 1 181.56 144.47
  L 179.94 143.85
  A 4.70 4.70 0.0 0 1 176.94 139.59
  Q 176.71 129.83 177.00 125.35
  C 177.23 121.88 175.70 120.00 173.06 118.67
  C 169.94 117.09 166.55 119.45 165.19 122.26
  Q 164.45 123.78 164.50 127.35
  Q 164.61 134.14 164.49 138.94
  A 5.60 5.60 0.0 0 1 161.69 143.65
  L 160.37 144.41
  A 1.90 1.90 0.0 0 1 157.53 142.60
  Q 157.96 137.88 157.74 126.00
  C 157.57 116.28 165.31 109.82 174.80 112.06
  C 176.45 112.45 178.22 114.21 179.61 115.12
  A 1.03 1.03 0.0 0 0 180.75 115.12
  C 184.42 112.71 187.87 110.66 192.43 111.92
  Q 202.60 114.74 202.79 126.24
  Q 202.96 137.15 202.73 142.76
  A 2.03 2.03 0.0 0 1 199.53 144.34
  Z"
/>
<path fill="#ffffff" d="
  M 82.53 119.35
  L 64.65 137.42
  A 0.47 0.47 0.0 0 0 64.98 138.22
  L 79.80 138.22
  A 4.09 4.08 75.0 0 1 83.34 140.27
  L 84.88 142.93
  A 1.50 1.49 -14.8 0 1 83.57 145.17
  Q 71.98 145.08 59.37 144.98
  Q 57.20 144.96 54.69 141.93
  Q 53.67 139.16 56.07 136.80
  Q 68.74 124.31 72.06 120.82
  Q 72.64 120.21 72.89 119.77
  A 0.90 0.90 0.0 0 0 72.06 118.44
  Q 66.86 118.65 62.77 118.67
  C 58.90 118.69 54.88 117.52 54.62 113.10
  A 1.14 1.13 88.1 0 1 55.75 111.89
  Q 68.00 111.88 77.73 112.05
  Q 81.82 112.12 82.87 115.12
  Q 83.40 116.63 82.53 119.35
  Z"
/>
<circle fill="#0e5efe" cx="101.76" cy="128.54" r="10.18"/>
<ellipse fill="#0e5efe" cx="0.00" cy="0.00" transform="translate(137.91,128.53) rotate(-132.4)" rx="10.26" ry="10.10"/>
<path fill="#0a53e5" d="
  M 86.55 121.01
  C 83.48 127.64 84.61 134.42 89.49 139.69
  C 92.20 142.62 94.70 144.35 98.77 145.31
  C 105.33 148.49 111.98 151.56 118.43 155.01
  Q 142.42 167.88 173.51 183.70
  Q 192.28 193.26 210.31 206.79
  Q 192.40 225.71 168.23 231.23
  Q 153.74 234.55 135.22 235.05
  Q 93.64 208.76 54.70 187.06
  Q 42.51 180.26 27.37 173.72
  Q 25.22 166.80 24.05 158.50
  Q 21.82 142.73 21.81 128.09
  C 34.13 129.34 44.47 134.98 54.69 141.93
  Q 57.20 144.96 59.37 144.98
  Q 71.98 145.08 83.57 145.17
  A 1.50 1.49 -14.8 0 0 84.88 142.93
  L 83.34 140.27
  A 4.09 4.08 75.0 0 0 79.80 138.22
  L 64.98 138.22
  A 0.47 0.47 0.0 0 1 64.65 137.42
  L 82.53 119.35
  Q 84.48 119.68 86.55 121.01
  Z"
/>
<path fill="#094acb" d="
  M 135.22 235.05
  Q 110.75 235.90 89.55 231.43
  Q 78.68 229.14 67.27 222.70
  Q 43.33 209.17 31.34 184.39
  Q 30.32 182.27 27.37 173.72
  Q 42.51 180.26 54.70 187.06
  Q 93.64 208.76 135.22 235.05
  Z"
/>
</svg>