<?xml version="1.0" encoding="UTF-8" standalone="no"?>
<!DOCTYPE svg PUBLIC "-//W3C//DTD SVG 1.1//EN" "http://www.w3.org/Graphics/SVG/1.1/DTD/svg11.dtd">
<svg xmlns="http://www.w3.org/2000/svg" version="1.1" viewBox="0.00 0.00 256.00 256.00" width="128" height="128">
<g stroke-width="2.00" fill="none" stroke-linecap="butt">
<path stroke="#898987" vector-effect="non-scaling-stroke" d="
  M 135.24 155.54
  L 137.14 152.15
  A 0.55 0.31 -29.0 0 1 137.19 152.07
  L 203.25 72.02
  A 1.04 1.03 25.9 0 0 202.67 70.35
  Q 200.46 69.87 198.50 69.91
  Q 168.19 70.46 145.71 70.00
  C 142.73 69.94 139.17 70.22 135.92 70.33
  A 1.14 1.13 -89.4 0 0 134.84 71.40
  Q 134.28 82.60 134.61 91.52
  C 135.11 105.49 134.48 116.69 134.74 131.50
  Q 134.80 134.80 134.18 147.03
  Q 134.10 148.65 134.67 155.41
  A 0.31 0.30 57.5 0 0 135.24 155.54"
/>
<path stroke="#898987" vector-effect="non-scaling-stroke" d="
  M 52.86 72.65
  C 55.42 84.89 62.44 96.73 74.39 101.87
  C 81.78 105.06 89.53 106.58 97.17 103.90
  Q 97.26 103.87 104.44 101.19
  A 7.69 7.50 -70.5 0 0 105.76 100.54
  C 115.27 94.64 123.87 83.42 123.41 71.77
  A 1.44 1.43 -87.7 0 0 122.14 70.39
  Q 118.83 69.98 115.75 70.00
  Q 87.93 70.19 59.25 70.24
  Q 56.41 70.24 53.84 71.01
  A 1.42 1.40 -14.5 0 0 52.86 72.65"
/>
<path stroke="#898987" vector-effect="non-scaling-stroke" d="
  M 122.55 185.21
  A 0.94 0.94 0.0 0 0 123.49 184.27
  L 123.49 102.52
  A 0.94 0.94 0.0 0 0 121.82 101.92
  L 54.36 183.67
  A 0.94 0.94 0.0 0 0 55.08 185.21
  L 122.55 185.21"
/>
<path stroke="#898987" vector-effect="non-scaling-stroke" d="
  M 134.88 185.05
  L 204.89 185.29
  A 0.09 0.09 0.0 0 0 204.99 185.20
  A 34.95 34.95 0.0 0 0 170.16 150.13
  L 169.86 150.13
  A 34.95 34.95 0.0 0 0 134.79 184.95
  A 0.09 0.09 0.0 0 0 134.88 185.05"
/>
</g>
<path fill="#12130e" d="
  M 256.00 0.00
  L 256.00 256.00
  L 0.00 256.00
  L 0.00 0.00
  L 256.00 0.00
  Z
  M 135.24 155.54
  L 137.14 152.15
  A 0.55 0.31 -29.0 0 1 137.19 152.07
  L 203.25 72.02
  A 1.04 1.03 25.9 0 0 202.67 70.35
  Q 200.46 69.87 198.50 69.91
  Q 168.19 70.46 145.71 70.00
  C 142.73 69.94 139.17 70.22 135.92 70.33
  A 1.14 1.13 -89.4 0 0 134.84 71.40
  Q 134.28 82.60 134.61 91.52
  C 135.11 105.49 134.48 116.69 134.74 131.50
  Q 134.80 134.80 134.18 147.03
  Q 134.10 148.65 134.67 155.41
  A 0.31 0.30 57.5 0 0 135.24 155.54
  Z
  M 52.86 72.65
  C 55.42 84.89 62.44 96.73 74.39 101.87
  C 81.78 105.06 89.53 106.58 97.17 103.90
  Q 97.26 103.87 104.44 101.19
  A 7.69 7.50 -70.5 0 0 105.76 100.54
  C 115.27 94.64 123.87 83.42 123.41 71.77
  A 1.44 1.43 -87.7 0 0 122.14 70.39
  Q 118.83 69.98 115.75 70.00
  Q 87.93 70.19 59.25 70.24
  Q 56.41 70.24 53.84 71.01
  A 1.42 1.40 -14.5 0 0 52.86 72.65
  Z
  M 122.55 185.21
  A 0.94 0.94 0.0 0 0 123.49 184.27
  L 123.49 102.52
  A 0.94 0.94 0.0 0 0 121.82 101.92
  L 54.36 183.67
  A 0.94 0.94 0.0 0 0 55.08 185.21
  L 122.55 185.21
  Z
  M 134.88 185.05
  L 204.89 185.29
  A 0.09 0.09 0.0 0 0 204.99 185.20
  A 34.95 34.95 0.0 0 0 170.16 150.13
  L 169.86 150.13
  A 34.95 34.95 0.0 0 0 134.79 184.95
  A 0.09 0.09 0.0 0 0 134.88 185.05
  Z"
/>
<path fill="#ffffff" d="
  M 134.67 155.41
  Q 134.10 148.65 134.18 147.03
  Q 134.80 134.80 134.74 131.50
  C 134.48 116.69 135.11 105.49 134.61 91.52
  Q 134.28 82.60 134.84 71.40
  A 1.14 1.13 -89.4 0 1 135.92 70.33
  C 139.17 70.22 142.73 69.94 145.71 70.00
  Q 168.19 70.46 198.50 69.91
  Q 200.46 69.87 202.67 70.35
  A 1.04 1.03 25.9 0 1 203.25 72.02
  L 137.19 152.07
  A 0.55 0.31 -29.0 0 0 137.14 152.15
  L 135.24 155.54
  A 0.31 0.30 57.5 0 1 134.67 155.41
  Z"
/>
<path fill="#ffffff" d="
  M 52.86 72.65
  A 1.42 1.40 -14.5 0 1 53.84 71.01
  Q 56.41 70.24 59.25 70.24
  Q 87.93 70.19 115.75 70.00
  Q 118.83 69.98 122.14 70.39
  A 1.44 1.43 -87.7 0 1 123.41 71.77
  C 123.87 83.42 115.27 94.64 105.76 100.54
  A 7.69 7.50 -70.5 0 1 104.44 101.19
  Q 97.26 103.87 97.17 103.90
  C 89.53 106.58 81.78 105.06 74.39 101.87
  C 62.44 96.73 55.42 84.89 52.86 72.65
  Z"
/>
<path fill="#ffffff" d="
  M 122.55 185.21
  L 55.08 185.21
  A 0.94 0.94 0.0 0 1 54.36 183.67
  L 121.82 101.92
  A 0.94 0.94 0.0 0 1 123.49 102.52
  L 123.49 184.27
  A 0.94 0.94 0.0 0 1 122.55 185.21
  Z"
/>
<path fill="#ffffff" d="
  M 134.88 185.05
  A 0.09 0.09 0.0 0 1 134.79 184.95
  A 34.95 34.95 0.0 0 1 169.86 150.13
  L 170.16 150.13
  A 34.95 34.95 0.0 0 1 204.99 185.20
  A 0.09 0.09 0.0 0 1 204.89 185.29
  L 134.88 185.05
  Z"
/>
</svg>