<?xml version="1.0" encoding="UTF-8" standalone="no"?>
<!DOCTYPE svg PUBLIC "-//W3C//DTD SVG 1.1//EN" "http://www.w3.org/Graphics/SVG/1.1/DTD/svg11.dtd">
<svg xmlns="http://www.w3.org/2000/svg" version="1.1" viewBox="0.00 0.00 256.00 256.00" width="128" height="128">
<g stroke-width="2.00" fill="none" stroke-linecap="butt">
<path stroke="#442880" vector-effect="non-scaling-stroke" d="
  M 95.72 97.96
  Q 76.68 100.64 70.12 117.09
  C 67.50 123.67 67.24 131.77 69.73 138.25
  Q 76.34 155.48 95.49 157.99"
/>
<path stroke="#126639" vector-effect="non-scaling-stroke" d="
  M 95.49 157.99
  Q 79.65 160.24 72.40 172.42
  C 58.98 194.97 78.47 222.93 104.33 217.30
  C 114.97 214.99 123.17 207.40 126.64 197.19
  Q 127.99 193.21 128.00 182.62
  Q 128.01 170.35 128.00 158.02"
/>
<path stroke="#442880" vector-effect="non-scaling-stroke" d="
  M 128.00 158.02
  L 128.22 134.26"
/>
<path stroke="#005b80" vector-effect="non-scaling-stroke" d="
  M 128.22 134.26
  Q 131.87 148.05 142.91 154.12
  C 154.99 160.76 170.26 158.78 179.68 148.46
  C 187.26 140.16 189.95 128.07 186.08 117.93
  Q 179.33 100.28 159.84 97.96"
/>
<path stroke="#80391c" vector-effect="non-scaling-stroke" d="
  M 159.84 97.96
  Q 171.52 96.89 178.95 89.50
  C 191.38 77.18 191.06 56.77 177.49 45.21
  Q 168.80 37.80 156.50 37.91
  Q 142.24 38.05 128.00 37.99"
/>
<path stroke="#801c1c" vector-effect="non-scaling-stroke" d="
  M 128.00 37.99
  Q 115.56 37.97 103.14 37.99
  Q 93.13 38.01 88.98 39.35
  C 67.73 46.21 61.22 72.41 76.12 88.63
  Q 83.61 96.78 95.72 97.96"
/>
<path stroke="#ff5537" vector-effect="non-scaling-stroke" d="
  M 128.00 37.99
  L 128.00 97.99"
/>
<path stroke="#c3439b" vector-effect="non-scaling-stroke" d="
  M 128.00 97.99
  L 95.72 97.96"
/>
<path stroke="#442880" vector-effect="non-scaling-stroke" d="
  M 128.00 98.05
  L 128.10 123.42"
/>
<path stroke="#4483ff" vector-effect="non-scaling-stroke" d="
  M 128.10 123.42
  L 128.22 134.26"
/>
<path stroke="#568db8" vector-effect="non-scaling-stroke" d="
  M 128.00 158.02
  L 95.49 157.99"
/>
<path stroke="#80949b" vector-effect="non-scaling-stroke" d="
  M 159.84 97.96
  L 154.48 98.08"
/>
<path stroke="#80391c" vector-effect="non-scaling-stroke" d="
  M 154.48 98.08
  L 128.00 98.05"
/>
<path stroke="#c3619b" vector-effect="non-scaling-stroke" d="
  M 128.00 98.05
  Q 128.00 98.02 128.00 97.99"
/>
<path stroke="#005b80" vector-effect="non-scaling-stroke" d="
  M 154.48 98.08
  C 151.93 98.70 149.34 99.10 147.03 100.02
  Q 131.31 106.32 128.10 123.42"
/>
</g>
<path fill="#000000" d="
  M 256.00 0.00
  L 256.00 256.00
  L 0.00 256.00
  L 0.00 0.00
  L 256.00 0.00
  Z
  M 95.72 97.96
  Q 76.68 100.64 70.12 117.09
  C 67.50 123.67 67.24 131.77 69.73 138.25
  Q 76.34 155.48 95.49 157.99
  Q 79.65 160.24 72.40 172.42
  C 58.98 194.97 78.47 222.93 104.33 217.30
  C 114.97 214.99 123.17 207.40 126.64 197.19
  Q 127.99 193.21 128.00 182.62
  Q 128.01 170.35 128.00 158.02
  L 128.22 134.26
  Q 131.87 148.05 142.91 154.12
  C 154.99 160.76 170.26 158.78 179.68 148.46
  C 187.26 140.16 189.95 128.07 186.08 117.93
  Q 179.33 100.28 159.84 97.96
  Q 171.52 96.89 178.95 89.50
  C 191.38 77.18 191.06 56.77 177.49 45.21
  Q 168.80 37.80 156.50 37.91
  Q 142.24 38.05 128.00 37.99
  Q 115.56 37.97 103.14 37.99
  Q 93.13 38.01 88.98 39.35
  C 67.73 46.21 61.22 72.41 76.12 88.63
  Q 83.61 96.78 95.72 97.96
  Z"
/>
<path fill="#ff3737" d="
  M 128.00 37.99
  L 128.00 97.99
  L 95.72 97.96
  Q 83.61 96.78 76.12 88.63
  C 61.22 72.41 67.73 46.21 88.98 39.35
  Q 93.13 38.01 103.14 37.99
  Q 115.56 37.97 128.00 37.99
  Z"
/>
<path fill="#ff7237" d="
  M 159.84 97.96
  L 154.48 98.08
  L 128.00 98.05
  Q 128.00 98.02 128.00 97.99
  L 128.00 37.99
  Q 142.24 38.05 156.50 37.91
  Q 168.80 37.80 177.49 45.21
  C 191.06 56.77 191.38 77.18 178.95 89.50
  Q 171.52 96.89 159.84 97.96
  Z"
/>
<path fill="#874fff" d="
  M 95.72 97.96
  L 128.00 97.99
  Q 128.00 98.02 128.00 98.05
  L 128.10 123.42
  L 128.22 134.26
  L 128.00 158.02
  L 95.49 157.99
  Q 76.34 155.48 69.73 138.25
  C 67.24 131.77 67.50 123.67 70.12 117.09
  Q 76.68 100.64 95.72 97.96
  Z"
/>
<path fill="#000000" d="
  M 154.48 98.08
  C 151.93 98.70 149.34 99.10 147.03 100.02
  Q 131.31 106.32 128.10 123.42
  L 128.00 98.05
  L 154.48 98.08
  Z"
/>
<path fill="#00b6ff" d="
  M 159.84 97.96
  Q 179.33 100.28 186.08 117.93
  C 189.95 128.07 187.26 140.16 179.68 148.46
  C 170.26 158.78 154.99 160.76 142.91 154.12
  Q 131.87 148.05 128.22 134.26
  L 128.10 123.42
  Q 131.31 106.32 147.03 100.02
  C 149.34 99.10 151.93 98.70 154.48 98.08
  L 159.84 97.96
  Z"
/>
<path fill="#24cb71" d="
  M 95.49 157.99
  L 128.00 158.02
  Q 128.01 170.35 128.00 182.62
  Q 127.99 193.21 126.64 197.19
  C 123.17 207.40 114.97 214.99 104.33 217.30
  C 78.47 222.93 58.98 194.97 72.40 172.42
  Q 79.65 160.24 95.49 157.99
  Z"
/>
</svg>