<?xml version="1.0" encoding="UTF-8" standalone="no"?>
<!DOCTYPE svg PUBLIC "-//W3C//DTD SVG 1.1//EN" "http://www.w3.org/Graphics/SVG/1.1/DTD/svg11.dtd">
<svg xmlns="http://www.w3.org/2000/svg" version="1.1" viewBox="0.00 0.00 400.00 400.00" width="128" height="128">
<g stroke-width="2.00" fill="none" stroke-linecap="butt">
<path stroke="#7cabf8" vector-effect="non-scaling-stroke" d="
  M 260.21 103.14
  A 0.31 0.31 0.0 0 0 259.87 103.14
  L 200.42 140.94
  A 0.31 0.31 0.0 0 0 200.42 141.46
  L 259.62 179.14
  A 0.31 0.31 0.0 0 1 259.62 179.66
  L 200.14 217.48
  A 0.31 0.31 0.0 0 1 199.80 217.48
  L 140.36 179.65
  A 0.31 0.31 0.0 0 1 140.36 179.13
  L 199.56 141.49
  A 0.31 0.31 0.0 0 0 199.56 140.97
  L 140.12 103.14
  A 0.31 0.31 0.0 0 0 139.78 103.14
  L 80.33 140.94
  A 0.31 0.31 0.0 0 0 80.33 141.46
  L 139.53 179.14
  A 0.31 0.31 0.0 0 1 139.53 179.66
  L 80.33 217.31
  A 0.31 0.31 0.0 0 0 80.33 217.83
  L 139.76 255.66
  A 0.31 0.31 0.0 0 0 140.10 255.66
  L 199.84 217.68
  A 0.31 0.31 0.0 0 1 200.18 217.68
  L 259.85 255.65
  A 0.31 0.31 0.0 0 0 260.19 255.65
  L 319.65 217.85
  A 0.31 0.31 0.0 0 0 319.65 217.33
  L 260.45 179.65
  A 0.31 0.31 0.0 0 1 260.45 179.13
  L 319.65 141.48
  A 0.31 0.31 0.0 0 0 319.65 140.96
  L 260.21 103.14"
/>
<path stroke="#7cabf8" vector-effect="non-scaling-stroke" d="
  M 140.36 268.23
  A 0.30 0.30 0.0 0 0 140.36 268.73
  L 199.81 306.57
  A 0.30 0.30 0.0 0 0 200.13 306.57
  L 259.62 268.74
  A 0.30 0.30 0.0 0 0 259.62 268.24
  L 200.17 230.40
  A 0.30 0.30 0.0 0 0 199.85 230.40
  L 140.36 268.23"
/>
</g>
<path fill="#0061fe" d="
  M 400.00 0.00
  L 400.00 400.00
  L 0.00 400.00
  L 0.00 0.00
  L 400.00 0.00
  Z
  M 260.21 103.14
  A 0.31 0.31 0.0 0 0 259.87 103.14
  L 200.42 140.94
  A 0.31 0.31 0.0 0 0 200.42 141.46
  L 259.62 179.14
  A 0.31 0.31 0.0 0 1 259.62 179.66
  L 200.14 217.48
  A 0.31 0.31 0.0 0 1 199.80 217.48
  L 140.36 179.65
  A 0.31 0.31 0.0 0 1 140.36 179.13
  L 199.56 141.49
  A 0.31 0.31 0.0 0 0 199.56 140.97
  L 140.12 103.14
  A 0.31 0.31 0.0 0 0 139.78 103.14
  L 80.33 140.94
  A 0.31 0.31 0.0 0 0 80.33 141.46
  L 139.53 179.14
  A 0.31 0.31 0.0 0 1 139.53 179.66
  L 80.33 217.31
  A 0.31 0.31 0.0 0 0 80.33 217.83
  L 139.76 255.66
  A 0.31 0.31 0.0 0 0 140.10 255.66
  L 199.84 217.68
  A 0.31 0.31 0.0 0 1 200.18 217.68
  L 259.85 255.65
  A 0.31 0.31 0.0 0 0 260.19 255.65
  L 319.65 217.85
  A 0.31 0.31 0.0 0 0 319.65 217.33
  L 260.45 179.65
  A 0.31 0.31 0.0 0 1 260.45 179.13
  L 319.65 141.48
  A 0.31 0.31 0.0 0 0 319.65 140.96
  L 260.21 103.14
  Z
  M 140.36 268.23
  A 0.30 0.30 0.0 0 0 140.36 268.73
  L 199.81 306.57
  A 0.30 0.30 0.0 0 0 200.13 306.57
  L 259.62 268.74
  A 0.30 0.30 0.0 0 0 259.62 268.24
  L 200.17 230.40
  A 0.30 0.30 0.0 0 0 199.85 230.40
  L 140.36 268.23
  Z"
/>
<path fill="#f7f5f2" d="
  M 260.21 103.14
  L 319.65 140.96
  A 0.31 0.31 0.0 0 1 319.65 141.48
  L 260.45 179.13
  A 0.31 0.31 0.0 0 0 260.45 179.65
  L 319.65 217.33
  A 0.31 0.31 0.0 0 1 319.65 217.85
  L 260.19 255.65
  A 0.31 0.31 0.0 0 1 259.85 255.65
  L 200.18 217.68
  A 0.31 0.31 0.0 0 0 199.84 217.68
  L 140.10 255.66
  A 0.31 0.31 0.0 0 1 139.76 255.66
  L 80.33 217.83
  A 0.31 0.31 0.0 0 1 80.33 217.31
  L 139.53 179.66
  A 0.31 0.31 0.0 0 0 139.53 179.14
  L 80.33 141.46
  A 0.31 0.31 0.0 0 1 80.33 140.94
  L 139.78 103.14
  A 0.31 0.31 0.0 0 1 140.12 103.14
  L 199.56 140.97
  A 0.31 0.31 0.0 0 1 199.56 141.49
  L 140.36 179.13
  A 0.31 0.31 0.0 0 0 140.36 179.65
  L 199.80 217.48
  A 0.31 0.31 0.0 0 0 200.14 217.48
  L 259.62 179.66
  A 0.31 0.31 0.0 0 0 259.62 179.14
  L 200.42 141.46
  A 0.31 0.31 0.0 0 1 200.42 140.94
  L 259.87 103.14
  A 0.31 0.31 0.0 0 1 260.21 103.14
  Z"
/>
<path fill="#f7f5f2" d="
  M 140.36 268.23
  L 199.85 230.40
  A 0.30 0.30 0.0 0 1 200.17 230.40
  L 259.62 268.24
  A 0.30 0.30 0.0 0 1 259.62 268.74
  L 200.13 306.57
  A 0.30 0.30 0.0 0 1 199.81 306.57
  L 140.36 268.73
  A 0.30 0.30 0.0 0 1 140.36 268.23
  Z"
/>
</svg>