<?xml version="1.0" encoding="UTF-8" standalone="no"?>
<!DOCTYPE svg PUBLIC "-//W3C//DTD SVG 1.1//EN" "http://www.w3.org/Graphics/SVG/1.1/DTD/svg11.dtd">
<svg xmlns="http://www.w3.org/2000/svg" version="1.1" viewBox="0.00 0.00 256.00 256.00" width="128" height="128">
<g stroke-width="2.00" fill="none" stroke-linecap="butt">
<path stroke="#0d9be3" vector-effect="non-scaling-stroke" d="
  M 170.71 0.00
  Q 170.82 2.93 171.01 5.88
  Q 171.21 9.16 171.22 11.76
  Q 171.35 46.63 171.16 81.50
  Q 171.15 83.00 170.92 84.46"
/>
<path stroke="#00a8de" vector-effect="non-scaling-stroke" d="
  M 170.92 84.46
  Q 166.32 85.77 162.94 85.75
  Q 137.51 85.59 118.38 85.65
  C 110.17 85.67 102.29 85.04 93.39 84.66
  Q 90.63 84.54 85.91 83.19"
/>
<path stroke="#0d9be3" vector-effect="non-scaling-stroke" d="
  M 256.00 84.51
  C 254.37 84.47 253.95 85.84 252.47 85.83
  Q 211.81 85.71 171.60 85.75"
/>
<path stroke="#0d90de" vector-effect="non-scaling-stroke" d="
  M 171.60 85.75
  L 170.92 84.46"
/>
<path stroke="#00a8de" vector-effect="non-scaling-stroke" d="
  M 171.60 85.75
  Q 171.22 88.84 171.22 92.06
  Q 171.22 114.52 171.26 137.00
  Q 171.28 154.02 172.81 171.32"
/>
<path stroke="#4dbfe7" vector-effect="non-scaling-stroke" d="
  M 171.41 172.62
  Q 171.05 171.78 170.47 171.81
  C 160.27 172.36 148.83 171.09 140.05 171.05
  Q 135.87 171.04 87.75 171.17
  Q 87.16 171.17 86.58 171.53"
/>
<path stroke="#0d90de" vector-effect="non-scaling-stroke" d="
  M 86.58 171.53
  L 85.28 170.23"
/>
<path stroke="#4dbfe7" vector-effect="non-scaling-stroke" d="
  M 85.28 170.23
  Q 85.87 169.35 85.87 168.64
  Q 85.85 139.32 85.91 110.00
  Q 85.92 102.72 84.84 86.30"
/>
<path stroke="#5ab2eb" vector-effect="non-scaling-stroke" d="
  M 85.28 170.23
  Q 84.68 170.94 84.19 170.94
  Q 42.10 170.90 0.00 171.14"
/>
<path stroke="#5ab2eb" vector-effect="non-scaling-stroke" d="
  M 86.58 171.53
  Q 85.82 172.73 85.86 175.25
  Q 86.34 206.88 85.61 256.00"
/>
</g>
<path fill="#00b3e3" d="
  M 170.71 0.00
  Q 170.82 2.93 171.01 5.88
  Q 171.21 9.16 171.22 11.76
  Q 171.35 46.63 171.16 81.50
  Q 171.15 83.00 170.92 84.46
  Q 166.32 85.77 162.94 85.75
  Q 137.51 85.59 118.38 85.65
  C 110.17 85.67 102.29 85.04 93.39 84.66
  Q 90.63 84.54 85.91 83.19
  L 85.53 1.20
  A 0.63 0.63 0.0 0 1 86.01 0.59
  L 88.50 0.00
  L 170.71 0.00
  Z"
/>
<path fill="#1a82e2" d="
  M 256.00 0.00
  L 256.00 84.51
  C 254.37 84.47 253.95 85.84 252.47 85.83
  Q 211.81 85.71 171.60 85.75
  L 170.92 84.46
  Q 171.15 83.00 171.16 81.50
  Q 171.35 46.63 171.22 11.76
  Q 171.21 9.16 171.01 5.88
  Q 170.82 2.93 170.71 0.00
  L 256.00 0.00
  Z"
/>
<path fill="#009dd9" d="
  M 170.92 84.46
  L 171.60 85.75
  Q 171.22 88.84 171.22 92.06
  Q 171.22 114.52 171.26 137.00
  Q 171.28 154.02 172.81 171.32
  L 171.83 171.19
  A 0.51 0.51 0.0 0 0 171.25 171.69
  Q 171.24 172.16 171.41 172.62
  Q 171.05 171.78 170.47 171.81
  C 160.27 172.36 148.83 171.09 140.05 171.05
  Q 135.87 171.04 87.75 171.17
  Q 87.16 171.17 86.58 171.53
  L 85.28 170.23
  Q 85.87 169.35 85.87 168.64
  Q 85.85 139.32 85.91 110.00
  Q 85.92 102.72 84.84 86.30
  Q 85.47 86.65 85.79 85.76
  Q 86.08 84.91 85.91 83.19
  Q 90.63 84.54 93.39 84.66
  C 102.29 85.04 110.17 85.67 118.38 85.65
  Q 137.51 85.59 162.94 85.75
  Q 166.32 85.77 170.92 84.46
  Z"
/>
<path fill="#00b3e3" d="
  M 256.00 84.51
  L 256.00 168.55
  L 255.53 171.06
  A 0.63 0.62 8.9 0 1 254.84 171.56
  C 253.87 171.44 252.73 171.20 251.85 171.20
  Q 212.22 171.07 172.81 171.32
  Q 171.28 154.02 171.26 137.00
  Q 171.22 114.52 171.22 92.06
  Q 171.22 88.84 171.60 85.75
  Q 211.81 85.71 252.47 85.83
  C 253.95 85.84 254.37 84.47 256.00 84.51
  Z"
/>
<path fill="#99e1f4" d="
  M 84.84 86.30
  Q 85.92 102.72 85.91 110.00
  Q 85.85 139.32 85.87 168.64
  Q 85.87 169.35 85.28 170.23
  Q 84.68 170.94 84.19 170.94
  Q 42.10 170.90 0.00 171.14
  L 0.00 89.37
  L 0.59 86.27
  A 0.63 0.63 0.0 0 1 1.21 85.76
  Q 41.88 85.91 82.51 85.72
  Q 83.04 85.72 84.84 86.30
  Z"
/>
<path fill="#1a82e2" d="
  M 85.28 170.23
  L 86.58 171.53
  Q 85.82 172.73 85.86 175.25
  Q 86.34 206.88 85.61 256.00
  L 0.00 256.00
  L 0.00 171.14
  Q 42.10 170.90 84.19 170.94
  Q 84.68 170.94 85.28 170.23
  Z"
/>
<path fill="#99e1f4" d="
  M 171.41 172.62
  L 171.51 254.85
  A 0.60 0.58 84.0 0 1 171.05 255.43
  L 168.58 256.00
  L 85.61 256.00
  Q 86.34 206.88 85.86 175.25
  Q 85.82 172.73 86.58 171.53
  Q 87.16 171.17 87.75 171.17
  Q 135.87 171.04 140.05 171.05
  C 148.83 171.09 160.27 172.36 170.47 171.81
  Q 171.05 171.78 171.41 172.62
  Z"
/>
</svg>