<?xml version="1.0" encoding="UTF-8" standalone="no"?>
<!DOCTYPE svg PUBLIC "-//W3C//DTD SVG 1.1//EN" "http://www.w3.org/Graphics/SVG/1.1/DTD/svg11.dtd">
<svg xmlns="http://www.w3.org/2000/svg" version="1.1" viewBox="0.00 0.00 288.00 288.00" width="128" height="128">
<g stroke-width="2.00" fill="none" stroke-linecap="butt">
<path stroke="#fc9f77" vector-effect="non-scaling-stroke" d="
  M 178.70 109.84
  Q 165.57 112.21 154.98 120.32
  A 0.46 0.46 0.0 0 1 154.42 120.31
  L 89.68 70.19
  A 0.79 0.79 0.0 0 1 89.40 69.37
  C 93.65 52.20 74.74 37.99 59.35 46.74
  C 44.57 55.15 45.37 76.11 60.67 83.31
  C 66.55 86.08 73.28 85.83 79.00 82.70
  A 0.74 0.74 0.0 0 1 79.81 82.77
  L 143.55 132.12
  A 0.26 0.25 34.1 0 1 143.62 132.45
  Q 128.50 157.81 140.26 183.56
  C 141.06 185.31 142.88 188.63 144.22 190.35
  A 0.82 0.82 0.0 0 1 144.15 191.43
  L 125.55 210.03
  A 0.99 0.97 28.7 0 1 124.64 210.29
  C 104.28 205.47 94.62 232.78 112.98 241.89
  C 119.03 244.88 126.77 243.65 131.51 239.21
  Q 138.90 232.30 136.56 222.19
  A 0.84 0.82 61.6 0 1 136.78 221.42
  L 155.42 202.78
  A 0.52 0.52 0.0 0 1 156.10 202.73
  Q 167.69 211.31 181.34 212.81
  C 214.68 216.48 243.27 188.43 239.09 155.11
  C 236.20 132.11 219.19 113.80 196.19 109.88
  A 0.99 0.97 4.9 0 1 195.37 108.92
  L 195.37 86.66
  A 1.00 1.00 0.0 0 1 195.86 85.80
  Q 206.08 79.65 205.89 69.01
  C 205.71 58.97 198.28 51.35 188.23 50.80
  C 182.03 50.46 175.68 53.39 172.19 58.42
  C 166.41 66.73 168.09 78.59 176.67 84.34
  Q 177.25 84.73 178.93 85.91
  A 1.01 1.00 17.2 0 1 179.37 86.74
  L 179.37 109.05
  A 0.81 0.80 -5.2 0 1 178.70 109.84"
/>
<path stroke="#fc9f77" vector-effect="non-scaling-stroke" d="
  M 214.08 161.10
  A 26.73 26.73 0.0 0 0 187.35 134.37
  A 26.73 26.73 0.0 0 0 160.62 161.10
  A 26.73 26.73 0.0 0 0 187.35 187.83
  A 26.73 26.73 0.0 0 0 214.08 161.10"
/>
</g>
<path fill="#ff4800" d="
  M 288.00 0.00
  L 288.00 288.00
  L 0.00 288.00
  L 0.00 0.00
  L 288.00 0.00
  Z
  M 178.70 109.84
  Q 165.57 112.21 154.98 120.32
  A 0.46 0.46 0.0 0 1 154.42 120.31
  L 89.68 70.19
  A 0.79 0.79 0.0 0 1 89.40 69.37
  C 93.65 52.20 74.74 37.99 59.35 46.74
  C 44.57 55.15 45.37 76.11 60.67 83.31
  C 66.55 86.08 73.28 85.83 79.00 82.70
  A 0.74 0.74 0.0 0 1 79.81 82.77
  L 143.55 132.12
  A 0.26 0.25 34.1 0 1 143.62 132.45
  Q 128.50 157.81 140.26 183.56
  C 141.06 185.31 142.88 188.63 144.22 190.35
  A 0.82 0.82 0.0 0 1 144.15 191.43
  L 125.55 210.03
  A 0.99 0.97 28.7 0 1 124.64 210.29
  C 104.28 205.47 94.62 232.78 112.98 241.89
  C 119.03 244.88 126.77 243.65 131.51 239.21
  Q 138.90 232.30 136.56 222.19
  A 0.84 0.82 61.6 0 1 136.78 221.42
  L 155.42 202.78
  A 0.52 0.52 0.0 0 1 156.10 202.73
  Q 167.69 211.31 181.34 212.81
  C 214.68 216.48 243.27 188.43 239.09 155.11
  C 236.20 132.11 219.19 113.80 196.19 109.88
  A 0.99 0.97 4.9 0 1 195.37 108.92
  L 195.37 86.66
  A 1.00 1.00 0.0 0 1 195.86 85.80
  Q 206.08 79.65 205.89 69.01
  C 205.71 58.97 198.28 51.35 188.23 50.80
  C 182.03 50.46 175.68 53.39 172.19 58.42
  C 166.41 66.73 168.09 78.59 176.67 84.34
  Q 177.25 84.73 178.93 85.91
  A 1.01 1.00 17.2 0 1 179.37 86.74
  L 179.37 109.05
  A 0.81 0.80 -5.2 0 1 178.70 109.84
  Z"
/>
<path fill="#f8f5ee" d="
  M 179.37 109.05
  L 179.37 86.74
  A 1.01 1.00 17.2 0 0 178.93 85.91
  Q 177.25 84.73 176.67 84.34
  C 168.09 78.59 166.41 66.73 172.19 58.42
  C 175.68 53.39 182.03 50.46 188.23 50.80
  C 198.28 51.35 205.71 58.97 205.89 69.01
  Q 206.08 79.65 195.86 85.80
  A 1.00 1.00 0.0 0 0 195.37 86.66
  L 195.37 108.92
  A 0.99 0.97 4.9 0 0 196.19 109.88
  C 219.19 113.80 236.20 132.11 239.09 155.11
  C 243.27 188.43 214.68 216.48 181.34 212.81
  Q 167.69 211.31 156.10 202.73
  A 0.52 0.52 0.0 0 0 155.42 202.78
  L 136.78 221.42
  A 0.84 0.82 61.6 0 0 136.56 222.19
  Q 138.90 232.30 131.51 239.21
  C 126.77 243.65 119.03 244.88 112.98 241.89
  C 94.62 232.78 104.28 205.47 124.64 210.29
  A 0.99 0.97 28.7 0 0 125.55 210.03
  L 144.15 191.43
  A 0.82 0.82 0.0 0 0 144.22 190.35
  C 142.88 188.63 141.06 185.31 140.26 183.56
  Q 128.50 157.81 143.62 132.45
  A 0.26 0.25 34.1 0 0 143.55 132.12
  L 79.81 82.77
  A 0.74 0.74 0.0 0 0 79.00 82.70
  C 73.28 85.83 66.55 86.08 60.67 83.31
  C 45.37 76.11 44.57 55.15 59.35 46.74
  C 74.74 37.99 93.65 52.20 89.40 69.37
  A 0.79 0.79 0.0 0 0 89.68 70.19
  L 154.42 120.31
  A 0.46 0.46 0.0 0 0 154.98 120.32
  Q 165.57 112.21 178.70 109.84
  A 0.81 0.80 -5.2 0 0 179.37 109.05
  Z
  M 214.08 161.10
  A 26.73 26.73 0.0 0 0 187.35 134.37
  A 26.73 26.73 0.0 0 0 160.62 161.10
  A 26.73 26.73 0.0 0 0 187.35 187.83
  A 26.73 26.73 0.0 0 0 214.08 161.10
  Z"
/>
<circle fill="#ff4800" cx="187.35" cy="161.10" r="26.73"/>
</svg>