<?xml version="1.0" encoding="UTF-8" standalone="no"?>
<!DOCTYPE svg PUBLIC "-//W3C//DTD SVG 1.1//EN" "http://www.w3.org/Graphics/SVG/1.1/DTD/svg11.dtd">
<svg xmlns="http://www.w3.org/2000/svg" version="1.1" viewBox="-0.00 -0.00 196.00 196.00" width="128" height="128">
<g stroke-width="2.00" fill="none" stroke-linecap="butt">
<path stroke="#80bb9b" vector-effect="non-scaling-stroke" d="
  M 48.99 39.27
  L 48.99 59.38
  A 0.63 0.63 0.0 0 0 49.62 60.01
  L 58.58 60.01
  A 1.18 1.17 -0.0 0 1 59.76 61.18
  L 59.76 161.67
  A 0.57 0.57 0.0 0 0 60.33 162.24
  L 84.89 162.24
  A 0.35 0.35 0.0 0 0 85.24 161.89
  L 85.24 118.03
  A 0.19 0.19 0.0 0 1 85.58 117.91
  C 93.57 127.76 108.74 129.75 120.50 127.02
  Q 141.65 122.10 149.69 101.43
  C 156.17 84.79 153.56 61.67 140.78 48.46
  Q 129.88 37.20 112.75 36.78
  C 101.64 36.51 90.17 40.82 83.71 50.11
  A 0.30 0.29 -34.1 0 1 83.18 50.01
  Q 80.34 38.35 69.38 38.60
  Q 65.44 38.69 49.67 38.60
  A 0.68 0.67 -0.0 0 0 48.99 39.27"
/>
<path stroke="#80bb9b" vector-effect="non-scaling-stroke" d="
  M 84.63 82.87
  C 84.79 95.46 92.02 107.28 106.03 107.09
  C 120.03 106.91 126.94 94.90 126.78 82.32
  C 126.61 69.73 119.38 57.91 105.38 58.09
  C 91.38 58.28 84.46 70.28 84.63 82.87"
/>
</g>
<path fill="#017737" d="
  M 102.62 0.00
  Q 134.05 1.85 157.60 20.15
  Q 192.43 47.23 196.00 92.65
  L 196.00 102.84
  Q 192.69 148.58 157.59 175.84
  Q 134.21 194.00 103.03 196.00
  L 93.02 196.00
  Q 47.24 192.61 20.05 157.46
  Q 1.99 134.12 0.00 102.98
  L 0.00 93.36
  Q 1.75 63.38 18.56 40.55
  Q 45.82 3.52 93.14 0.00
  L 102.62 0.00
  Z
  M 48.99 39.27
  L 48.99 59.38
  A 0.63 0.63 0.0 0 0 49.62 60.01
  L 58.58 60.01
  A 1.18 1.17 -0.0 0 1 59.76 61.18
  L 59.76 161.67
  A 0.57 0.57 0.0 0 0 60.33 162.24
  L 84.89 162.24
  A 0.35 0.35 0.0 0 0 85.24 161.89
  L 85.24 118.03
  A 0.19 0.19 0.0 0 1 85.58 117.91
  C 93.57 127.76 108.74 129.75 120.50 127.02
  Q 141.65 122.10 149.69 101.43
  C 156.17 84.79 153.56 61.67 140.78 48.46
  Q 129.88 37.20 112.75 36.78
  C 101.64 36.51 90.17 40.82 83.71 50.11
  A 0.30 0.29 -34.1 0 1 83.18 50.01
  Q 80.34 38.35 69.38 38.60
  Q 65.44 38.69 49.67 38.60
  A 0.68 0.67 -0.0 0 0 48.99 39.27
  Z"
/>
<path fill="#ffffff" d="
  M 49.67 38.60
  Q 65.44 38.69 69.38 38.60
  Q 80.34 38.35 83.18 50.01
  A 0.30 0.29 -34.1 0 0 83.71 50.11
  C 90.17 40.82 101.64 36.51 112.75 36.78
  Q 129.88 37.20 140.78 48.46
  C 153.56 61.67 156.17 84.79 149.69 101.43
  Q 141.65 122.10 120.50 127.02
  C 108.74 129.75 93.57 127.76 85.58 117.91
  A 0.19 0.19 0.0 0 0 85.24 118.03
  L 85.24 161.89
  A 0.35 0.35 0.0 0 1 84.89 162.24
  L 60.33 162.24
  A 0.57 0.57 0.0 0 1 59.76 161.67
  L 59.76 61.18
  A 1.18 1.17 0.0 0 0 58.58 60.01
  L 49.62 60.01
  A 0.63 0.63 0.0 0 1 48.99 59.38
  L 48.99 39.27
  A 0.68 0.67 -0.0 0 1 49.67 38.60
  Z
  M 84.63 82.87
  C 84.79 95.46 92.02 107.28 106.03 107.09
  C 120.03 106.91 126.94 94.90 126.78 82.32
  C 126.61 69.73 119.38 57.91 105.38 58.09
  C 91.38 58.28 84.46 70.28 84.63 82.87
  Z"
/>
<path fill="#017737" d="
  M 105.38 58.09
  C 119.38 57.91 126.61 69.73 126.78 82.32
  C 126.94 94.90 120.03 106.91 106.03 107.09
  C 92.02 107.28 84.79 95.46 84.63 82.87
  C 84.46 70.28 91.38 58.28 105.38 58.09
  Z"
/>
</svg>